<?xml version="1.0" encoding="UTF-8"?>
<svg id="Layer_1" xmlns="http://www.w3.org/2000/svg" viewBox="0 0 1920 1920">
  <defs>
    <style>
      .cls-1 {
        fill: #202020;
      }
    </style>
  </defs>
  <path class="cls-1" d="M959.69,153.04c442.94-.27,807.55,361.06,807.7,800.39.15,469.35-381.51,817.99-818.89,813.49-435.82-4.48-795.82-366.67-795.88-809.64-.05-442.3,362.89-803.97,807.07-804.24ZM683.11,499.98v549.19h189.5v-362.43h364.38v-186.77h-553.88ZM1237.8,883.95c-55.25,0-107.13,1.32-158.89-.55-25.96-.94-31.63,8.76-31.32,32.82,1.22,93.97.55,187.97.43,281.95-.01,10.51-.99,21.02-1.64,34.02h-363.81v185.58h555.25v-533.82Z"/>
</svg>