<?xml version="1.0" encoding="UTF-8"?>
<svg id="Layer_1" xmlns="http://www.w3.org/2000/svg" viewBox="0 0 1920 1080">
  <defs>
    <style>
      .cls-1 {
        fill: #231f20;
      }
    </style>
  </defs>
  <path class="cls-1" d="M210.42,215.97c93.04.86,168.11,80.04,167.07,176.23-.99,92.59-80.09,168.5-174.47,167.44-94.27-1.06-171.13-79.4-169.46-174.02,1.78-100.49,84.41-172.81,176.85-169.64ZM264.2,289.85h-117.36v117.49h39.66v-77.72h77.7v-39.77ZM224.66,445.94h-77.6v39.58h117.03v-113.39h-39.43v73.81Z"/>
  <path class="cls-1" d="M740.9,321.55h-58.62c-.45-1.66-.96-3.17-1.26-4.71-4.41-22.6-16.65-34.38-39.85-36.05-11.44-.82-23.47-.74-34.51,1.93-17.47,4.23-25.87,19.8-22.11,35.81,2.09,8.91,8.5,13.57,16.15,16.1,16.06,5.32,32.38,9.93,48.68,14.51,14.02,3.94,28.43,6.66,42.21,11.3,26.02,8.76,47.16,23.98,55.57,51.44,12.27,40.04-6.55,80.88-44.7,99.04-26.88,12.8-55.47,15.39-84.68,12.88-22.43-1.92-43.95-7.18-62.99-19.9-27.39-18.3-39.93-44.37-39.98-77.6h58.43c.25.64.91,1.56.95,2.51,1.08,25.93,18.35,42.59,45.66,47.07,17.49,2.87,34.96,2.47,51.44-5.16,15.62-7.23,23.11-20.58,18.43-35.19-1.94-6.05-6.56-13.11-11.93-15.82-13.1-6.63-27.15-11.6-41.18-16.11-20.65-6.63-42.06-11.08-62.32-18.66-24.75-9.25-43.55-25.62-48.51-53.33-6.25-34.88,6.43-65.6,37.61-82.47,47.74-25.81,96.59-24.4,143.06,3.56,24.79,14.92,34.54,39.68,34.45,68.84Z"/>
  <path class="cls-1" d="M573.66,765.89c.49,2.78,1.07,5.37,1.39,7.99,1.89,15.38,9.63,27.22,23.28,34.02,23.84,11.88,48.7,12.18,73.1,2.01,16.2-6.75,22.76-21.04,18.46-36.07-2.81-9.8-10.23-15.8-18.92-19.21-13.26-5.21-27.04-9.12-40.69-13.27-18.22-5.54-36.93-9.72-54.7-16.42-24.95-9.4-44.62-25.23-49.67-53.32-7.36-40.9,12.36-75.57,52.43-90.84,38.36-14.62,77.08-13.19,114.59,3.21,31.62,13.83,50.84,46.2,47.36,77.11h-57.8c-.33-.84-.71-1.56-.9-2.32-7.16-28.67-18.94-38.39-48.88-39.86-13.71-.67-27.16.35-38.38,9.66-16.88,14-14.28,38.01,6.27,45.18,24.44,8.52,49.72,14.73,74.82,21.21,22.54,5.81,43.36,14.25,58.73,32.65,28.56,34.19,18.81,90.76-19.75,115.93-21.13,13.8-44.78,19.08-69.4,20.29-27.04,1.33-53.5-1.9-78.31-13.79-33.62-16.11-53.5-48.35-51.56-84.17h58.54Z"/>
  <path class="cls-1" d="M1336.94,578.57v278.62h-52.32v-23.54c-11.12,14.98-25.26,23.9-42.95,27.25-49.37,9.35-89.5-14.61-103.71-62.94-11.67-39.7-9.9-78.47,14.22-113.6,23.43-34.13,69.85-44.97,106.19-25.24,8.39,4.56,15.29,11.87,23.27,18.23v-98.78h55.31ZM1185.39,755.05c1.63,16.2,3.93,31.55,12.78,45.21,10.4,16.06,25.27,22.8,44.17,20.83,16.66-1.74,28.15-10.88,34.28-26.01,9.95-24.56,10.19-49.82,1.37-74.61-6.74-18.95-21.78-28.6-40.71-28.65-22.03-.05-36.46,8.61-43.87,28.65-4.07,11.01-5.43,23.01-8.02,34.57Z"/>
  <path class="cls-1" d="M1204.18,455.97c-8.93,28.41-24.31,50.03-52.23,60.13-29.54,10.69-59.52,10.56-88.5-1.68-29.19-12.33-46.44-35.58-53.38-66.07-8.26-36.29-4.71-71.09,19.41-100.93,27.38-33.87,64.44-43.11,105.32-34.15,39.34,8.62,60.8,36.8,69.68,74.7,3.15,13.44,3.26,27.6,4.87,42.45h-146.44c-4.1,24.77,12.94,47.78,37.4,50.84,22.29,2.79,41.71-1.91,54.35-22.71.77-1.27,2.85-2.47,4.33-2.49,14.78-.18,29.56-.11,45.18-.11ZM1062.48,394.72h89.41c-4.23-31-20.01-44.14-50.19-42.39-21.89,1.27-39.13,19.82-39.22,42.39Z"/>
  <path class="cls-1" d="M1560.91,862.72c-29.7-.58-63.05-13.93-81.48-50.92-19.36-38.84-18.72-78.94,3.39-116.55,20.33-34.59,53.79-46.36,92.28-45.26,11,.32,22.28,2.11,32.82,5.27,31.18,9.32,51.99,30.14,62.09,60.98,8.74,26.71,8.7,53.86.04,80.61-13.59,42-50.35,66.16-109.14,65.87ZM1526.54,726.76c-5.67,20.21-5.26,41.7.96,61.74.78,2.51,1.65,4.99,2.64,7.43,7.06,17.3,21.34,25.23,40.35,25.4,19.5.18,34.36-7.3,42.3-25.13,11.31-25.41,11.38-51.78.95-77.31-8.09-19.8-24.32-28.24-45.86-27.15-19.53.99-32.71,10.91-39.23,28.47-.8,2.15-1.49,4.34-2.12,6.56Z"/>
  <path class="cls-1" d="M1237.46,316.12h52.25v28.13c2.55-2.82,3.8-3.97,4.78-5.32,13.67-18.77,32.61-27.34,55.32-28.26,15.51-.63,30.76.57,44.93,7.92,18.44,9.55,26.81,25.85,29.93,45.33,1.51,9.4,2.43,18.99,2.5,28.5.27,39.86.12,79.71.09,119.57,0,1.81-.37,3.62-.61,5.79h-54.69v-9.26c0-34.81.32-69.62-.2-104.42-.15-9.95-1.96-20.05-4.39-29.74-2.74-10.94-10.55-17.76-21.86-19.44-28.58-4.26-47.02,6.59-51.2,35.78-1.16,8.11-1.63,16.38-1.68,24.58-.19,31.09-.08,62.18-.08,93.26,0,2.87,0,5.74,0,9.13h-55.09v-201.54Z"/>
  <path class="cls-1" d="M1101.06,655.9v201.18h-52.03v-26.87c-1.8,1.07-2.86,1.35-3.33,2.04-18.74,27.35-46.15,33.5-76.47,29.54-38.37-5.01-56.09-25.78-57.26-68.53-1.23-45.12-.29-90.29-.27-135.44,0-.49.3-.97.65-2.02h53.81c.16,2.85.46,5.89.47,8.92.24,37.97.43,75.93.66,113.9.01,1.86.07,3.72.26,5.57,2.27,22.06,12.25,33.8,29.88,35.2,24.78,1.97,40.05-7.85,45.34-30.1,1.88-7.91,2.64-16.25,2.7-24.41.28-36.1.12-72.21.12-108.98h55.47Z"/>
  <path class="cls-1" d="M1698.93,792.47h51.64c7.01,30.42,43.82,44.4,69.81,26.81,15.04-10.18,14.39-29-2.32-35.92-14.1-5.84-29.29-9.06-44.04-13.28-11.96-3.42-24.27-5.82-35.9-10.11-18.13-6.7-32.2-18.12-34.2-38.98-2.39-24.98,5.31-45.72,28.17-58.66,19.88-11.25,41.94-13.62,64.01-12.21,15.39.98,31.19,3.71,45.69,8.83,23.69,8.37,38.59,31.22,38.54,55.33h-51.24c-6.12-20.71-14.8-27.23-36.54-27.13-6.83.03-13.85.49-20.44,2.12-7.03,1.74-12.22,6.38-12.97,14.39-.72,7.76,2.34,14.25,9.4,16.81,13.61,4.93,27.61,8.84,41.56,12.8,10.95,3.11,22.23,5.12,33.07,8.54,28.3,8.93,41.74,24.4,43.17,48.65,1.63,27.55-12.58,51.2-37.99,62.48-23.26,10.33-47.87,11.06-72.65,8.91-15.14-1.31-29.91-4.65-43.24-12.44-21.38-12.5-32.61-31.11-33.52-56.91Z"/>
  <path class="cls-1" d="M888.08,816.27v41.21c-16.75,3.12-33.6,2.3-50.44,1.3-2.64-.16-5.26-.69-7.88-1.09-24.01-3.69-37.55-19.32-37.59-43.65-.07-37.44-.02-74.89-.02-112.33v-9.59h-33.17v-36.63h33.09v-60.63h55.6v60.22h40.26v36.72h-39.62c-.23,2.92-.57,5.2-.57,7.48-.03,31.34-.08,62.67,0,94.01.05,18.26,4.93,22.96,23.32,22.98,5.51,0,11.02,0,17.02,0Z"/>
  <path class="cls-1" d="M875.28,316.07h51.89v34.4c.51.21,1.02.43,1.52.64,1.22-2.04,2.38-4.1,3.65-6.1,14.91-23.37,35.99-35.16,63.94-34.41,6.17.17,8.99,2.08,8.76,8.91-.48,14.28-.15,28.59-.15,43.54-6.56-.4-12.51-1.04-18.47-1.07-33.51-.16-54.19,18.53-55.53,52.17-1.25,31.27-.69,62.62-.91,93.93-.02,3.13,0,6.25,0,9.73h-54.71v-201.74Z"/>
  <path class="cls-1" d="M833.67,517.8h-54.15v-201.71h54.15v201.71Z"/>
  <path class="cls-1" d="M1432.11,857.54h-54.38v-201.78h54.38v201.78Z"/>
  <path class="cls-1" d="M1377.72,578.41h54.64v44.5h-54.64v-44.5Z"/>
  <path class="cls-1" d="M833.87,239.39v44.22h-54.14v-44.22h54.14Z"/>
</svg>